<svg version="1.1" id="Layer_1" xmlns="http://www.w3.org/2000/svg" xmlns:xlink="http://www.w3.org/1999/xlink" x="0px" y="0px" viewBox="0 0 1684.8 614.9" type="image/svg+xml">
      <g>
        <path d="M287.3,384.7h147.3v9.8c0,95.2-83.8,126.2-147.3,126.2c-100.9,0-166.9-74.9-166.9-215.7S189.6,95,288.1,95
          c65.9,0,123.7,32.6,141.6,96.9h110.7C521.8,82.7,427.3,2.1,289,2.1C108.3,2.1,0,121.8,0,304.9s103.4,308.5,269.4,308.5
          c83,0,144.1-31.8,177.5-79.8l3.3,69.2h92V289.4H287.3V384.7L287.3,384.7z" stroke="#ffffff" stroke-width="0.5" fill="#ffffff"></path>
        <path d="M1464.2,12.7H1347l-210.1,564.2l-114.7-125.5c32.6-57,52.1-121.3,58.6-179.9H970.1c-1.6,30.9-8.1,65.9-19.5,100.9
          l-78.1-86.3c61.9-28.5,109.9-86.3,109.9-152.2c-0.1-97.6-86.3-131.8-162-131.8C723.5,2.1,651,52.6,651,133.2
          c0,46.4,24.4,90.4,60.2,134.3C640.4,292.7,572,348.9,572,437.6c0,100.1,80.6,175.8,197.8,175.8c74.9,0,135.9-29.3,184-74.1l57,63.5
          H1246l41.5-119.7h229.6l41.5,119.7h126.2L1464.2,12.7L1464.2,12.7z M820.4,82.7c30.9,0,55.3,20.4,55.3,56.2
          c0,28.5-12.2,65.1-57,87.9l-0.8-0.8c-26-28.5-52.1-62.7-52.1-95.2C765.8,102.2,791.1,82.7,820.4,82.7z M786.2,528.8
          c-57.8,0-99.3-40.7-99.3-96.9c0-44,29.3-77.3,82.2-99.3l125.4,140.8C865.9,506.8,829.3,528.8,786.2,528.8L786.2,528.8z M1321,387.9
          l81.4-232.8l81.4,232.8H1321z" stroke="#ffffff" stroke-width="0.5" fill="#ffffff"></path>
      </g>
    </svg>