<svg id="Layer_1" data-name="Layer 1" xmlns="http://www.w3.org/2000/svg" width="994.61" height="1000.12" viewBox="0 0 994.61 1000.12"><path d="M324.31-.23a156.68,156.68,0,0,0-156.7,156.7V-.23H0v481H481V156.47A156.71,156.71,0,0,0,324.31-.23Z" fill="#f8f8f2" transform="translate(0 0.23)"/><path d="M0,675.62A156.67,156.67,0,0,0,156.7,832.27H0V999.89H481v-481H156.7A156.69,156.69,0,0,0,0,675.62Z" fill="#f8f8f2" transform="translate(0 0.23)"/><path d="M837.91,518.91A156.67,156.67,0,0,0,681.25,675.62V518.91H513.58v481h481V675.62A156.69,156.69,0,0,0,837.91,518.91Z" fill="#f8f8f2" transform="translate(0 0.23)"/><path d="M668.28,480.78A156.73,156.73,0,0,0,825,324.08v156.7H992.6V-.23h-481V324.08A156.73,156.73,0,0,0,668.28,480.78Z" fill="#f8f8f2" transform="translate(0 0.23)"/></svg>